<?xml version="1.0" standalone="no"?>
<!DOCTYPE svg PUBLIC "-//W3C//DTD SVG 20010904//EN"
 "http://www.w3.org/TR/2001/REC-SVG-20010904/DTD/svg10.dtd">
<svg version="1.0" xmlns="http://www.w3.org/2000/svg"
 width="80.000000pt" height="80.000000pt" viewBox="0 0 80.000000 80.000000"
 preserveAspectRatio="xMidYMid meet">

<g transform="translate(0.000000,80.000000) scale(0.100000,-0.100000)"
fill="#000000" stroke="none">
<path d="M20 430 l0 -290 30 0 c27 0 30 -3 30 -30 l0 -30 350 0 350 0 0 290 0
290 -30 0 c-27 0 -30 3 -30 30 l0 30 -350 0 -350 0 0 -290z m680 0 l0 -270
-330 0 -330 0 0 270 0 270 330 0 330 0 0 -270z m60 -60 l0 -270 -330 0 c-323
0 -330 0 -330 20 0 20 7 20 310 20 l310 0 0 250 c0 243 1 250 20 250 20 0 20
-7 20 -270z"/>
</g>
</svg>
