<?xml version="1.0" standalone="no"?>
<!DOCTYPE svg PUBLIC "-//W3C//DTD SVG 20010904//EN"
 "http://www.w3.org/TR/2001/REC-SVG-20010904/DTD/svg10.dtd">
<svg version="1.0" xmlns="http://www.w3.org/2000/svg"
 width="50.000000pt" height="50.000000pt" viewBox="0 0 50.000000 50.000000"
 preserveAspectRatio="xMidYMid meet">

<g transform="translate(0.000000,50.000000) scale(0.100000,-0.100000)"
fill="#000000" stroke="none">
<path d="M16 454 c-19 -18 -20 -38 -6 -65 8 -13 7 -31 -1 -59 -9 -31 -9 -49 0
-80 9 -30 9 -45 1 -61 -25 -45 20 -98 56 -68 12 10 22 10 50 0 28 -10 42 -10
65 -1 23 10 35 10 59 0 24 -10 36 -10 59 0 22 9 34 9 50 0 46 -24 87 22 61 69
-8 16 -8 31 1 61 9 31 9 49 0 80 -9 30 -9 45 -1 61 25 45 -20 98 -56 68 -12
-10 -22 -10 -50 0 -28 10 -42 10 -65 1 -23 -10 -35 -10 -59 0 -24 10 -36 10
-59 0 -21 -8 -35 -9 -49 -1 -28 15 -38 14 -56 -5z m314 -164 l0 -90 -120 0
-120 0 0 90 0 90 120 0 120 0 0 -90z"/>
<path d="M432 377 c-8 -10 -8 -23 0 -50 8 -28 8 -47 -1 -77 -8 -28 -9 -46 -1
-59 16 -31 12 -56 -13 -79 -25 -24 -57 -28 -73 -12 -8 8 -19 7 -38 -1 -21 -10
-34 -10 -61 0 -28 10 -42 10 -70 -1 -29 -10 -40 -10 -57 1 -26 16 -43 1 -34
-33 7 -29 41 -43 62 -25 12 10 22 10 50 0 28 -10 42 -10 65 -1 23 10 35 10 59
0 24 -10 36 -10 59 0 22 9 34 9 50 0 46 -24 87 22 61 69 -8 16 -8 31 1 61 9
31 9 49 0 80 -8 28 -9 46 -1 59 14 27 13 47 -6 65 -19 19 -38 20 -52 3z"/>
</g>
</svg>
