<?xml version="1.0" standalone="no"?>
<!DOCTYPE svg PUBLIC "-//W3C//DTD SVG 20010904//EN"
 "http://www.w3.org/TR/2001/REC-SVG-20010904/DTD/svg10.dtd">
<svg version="1.0" xmlns="http://www.w3.org/2000/svg"
 width="50.000000pt" height="50.000000pt" viewBox="0 0 50.000000 50.000000"
 preserveAspectRatio="xMidYMid meet">

<g transform="translate(0.000000,50.000000) scale(0.100000,-0.100000)"
fill="#000000" stroke="none">
<path d="M297 462 c-16 -18 -16 -20 1 -35 18 -16 20 -16 35 1 16 18 16 20 -1
35 -18 16 -20 16 -35 -1z"/>
<path d="M180 426 c0 -25 5 -35 20 -39 31 -8 26 -45 -6 -49 -24 -3 -32 -16
-81 -141 -30 -77 -52 -141 -50 -144 3 -2 70 18 149 45 132 46 143 52 146 76 3
21 8 26 33 26 17 0 32 -6 35 -15 4 -9 19 -15 35 -15 35 0 39 25 10 61 -17 21
-27 24 -85 23 -72 -1 -84 6 -34 21 17 6 36 19 42 30 6 11 19 26 29 33 9 7 17
22 17 33 0 10 7 19 15 19 10 0 15 10 15 30 0 25 -4 30 -25 30 -24 0 -65 -31
-65 -49 0 -5 -9 -13 -20 -16 -12 -4 -23 -18 -26 -33 -7 -33 -50 -58 -70 -41
-10 8 -11 16 -4 29 27 50 -7 120 -58 120 -18 0 -22 -6 -22 -34z m54 -2 c9 -8
16 -27 15 -42 0 -26 0 -26 -9 -4 -5 12 -16 25 -25 28 -16 7 -21 34 -6 34 5 0
17 -7 25 -16z m216 -3 c0 -5 -6 -11 -14 -14 -8 -3 -16 -16 -18 -29 -2 -15 -11
-24 -26 -26 -17 -3 -21 -8 -17 -22 7 -21 -2 -28 -48 -40 -29 -9 -30 -8 -13 5
11 8 23 15 27 15 4 0 9 12 11 28 2 19 9 28 26 30 13 2 22 10 22 21 0 9 5 22
12 29 14 14 38 16 38 3z m-240 -121 c0 -22 16 -27 23 -7 3 9 8 9 17 1 9 -9 9
-17 0 -34 -14 -26 -6 -38 15 -20 8 7 22 9 31 6 16 -6 16 -8 0 -24 -23 -26 -20
-34 11 -30 20 2 29 -2 31 -14 10 -53 -111 29 -147 99 -15 30 -14 43 4 43 8 0
15 -9 15 -20z m-19 -187 c-52 -18 -96 -31 -98 -30 -1 2 14 44 33 94 l36 90 62
-61 61 -61 -94 -32z m257 111 c23 -16 29 -34 11 -34 -6 0 -17 7 -25 15 -9 8
-34 15 -57 15 -31 0 -38 3 -27 10 23 15 73 12 98 -6z"/>
<path d="M87 422 c-16 -18 -16 -20 1 -35 18 -16 20 -16 35 1 16 18 16 20 -1
35 -18 16 -20 16 -35 -1z"/>
<path d="M441 316 c-9 -10 -8 -16 3 -25 10 -9 16 -8 25 3 9 10 8 16 -3 25 -10
9 -16 8 -25 -3z"/>
<path d="M51 306 c-9 -10 -8 -16 3 -25 10 -9 16 -8 25 3 9 10 8 16 -3 25 -10
9 -16 8 -25 -3z"/>
<path d="M367 102 c-16 -18 -16 -20 1 -35 18 -16 20 -16 35 1 16 18 16 20 -1
35 -18 16 -20 16 -35 -1z"/>
</g>
</svg>
