<?xml version="1.0" standalone="no"?>
<!DOCTYPE svg PUBLIC "-//W3C//DTD SVG 20010904//EN"
 "http://www.w3.org/TR/2001/REC-SVG-20010904/DTD/svg10.dtd">
<svg version="1.0" xmlns="http://www.w3.org/2000/svg"
 width="58.000000pt" height="58.000000pt" viewBox="0 0 58.000000 58.000000"
 preserveAspectRatio="xMidYMid meet">

<g transform="translate(0.000000,58.000000) scale(0.100000,-0.100000)"
fill="#000000" stroke="none">
<path d="M140 560 c0 -16 -8 -19 -57 -22 l-58 -3 0 -265 0 -265 265 0 265 0 3
143 c2 122 0 142 -13 142 -13 0 -15 -20 -15 -130 l0 -130 -240 0 -240 0 0 180
0 180 255 0 256 0 -3 73 -3 72 -57 3 c-50 3 -58 6 -58 22 0 11 -7 20 -15 20
-8 0 -15 -9 -15 -20 0 -18 -7 -20 -55 -20 -48 0 -55 2 -55 20 0 11 -5 20 -11
20 -6 0 -13 -9 -16 -20 -4 -16 -14 -20 -53 -20 -39 0 -49 4 -53 20 -7 26 -27
26 -27 0z m-2 -82 c-3 -27 1 -33 17 -33 16 0 20 6 17 33 l-2 32 51 0 c46 0 50
-2 49 -22 -4 -41 0 -48 21 -48 19 0 20 4 15 35 l-7 35 56 0 55 0 -2 -32 c-3
-27 1 -33 17 -33 16 0 20 6 17 33 -2 32 -2 32 43 32 l45 0 0 -45 0 -45 -240 0
-240 0 0 45 0 45 45 0 c45 0 45 0 43 -32z"/>
<path d="M525 340 c-3 -6 1 -13 10 -16 19 -8 30 0 20 15 -8 14 -22 14 -30 1z"/>
<path d="M177 324 c-4 -4 -7 -58 -7 -121 l0 -113 120 0 121 0 -3 118 -3 117
-111 3 c-60 1 -113 -1 -117 -4z m203 -114 l0 -90 -90 0 -90 0 0 90 0 90 90 0
90 0 0 -90z"/>
<path d="M299 224 c-23 -23 -29 -24 -47 -13 -32 20 -39 1 -10 -28 l26 -26 41
34 c40 34 53 59 28 59 -7 0 -24 -12 -38 -26z"/>
</g>
</svg>
