<?xml version="1.0" encoding="iso-8859-1"?>
<!-- Generator: Adobe Illustrator 19.0.0, SVG Export Plug-In . SVG Version: 6.00 Build 0)  -->
<svg version="1.1" id="Layer_1" xmlns="http://www.w3.org/2000/svg" xmlns:xlink="http://www.w3.org/1999/xlink" x="0px" y="0px"
	 viewBox="0 0 512.002 512.002" style="enable-background:new 0 0 512.002 512.002;" xml:space="preserve">
<g>
	<g>
		<path d="M186.315,356.948c-5.318-2.253-11.447,0.237-13.694,5.551l-6.818,16.113c-2.249,5.315,0.236,11.447,5.551,13.694
			c1.329,0.563,2.71,0.83,4.068,0.83c4.071,0,7.942-2.395,9.628-6.379l6.818-16.113
			C194.114,365.327,191.629,359.195,186.315,356.948z"/>
	</g>
</g>
<g>
	<g>
		<path d="M252.916,199.53c-5.319-2.248-11.446,0.237-13.695,5.552l-52.73,124.625c-2.248,5.314,0.237,11.446,5.552,13.695
			c1.329,0.562,2.709,0.829,4.067,0.829c4.072,0,7.942-2.395,9.629-6.381l52.73-124.625
			C260.716,207.911,258.231,201.779,252.916,199.53z"/>
	</g>
</g>
<g>
	<g>
		<path d="M55.381,0C24.844,0,0.001,24.843,0.001,55.38c0,30.536,24.844,55.38,55.38,55.38c30.537,0,55.38-24.842,55.38-55.38
			C110.76,24.842,85.918,0,55.381,0z M55.381,89.861c-19.014,0-34.482-15.468-34.482-34.482c0-19.014,15.469-34.482,34.482-34.482
			c19.013,0,34.482,15.469,34.482,34.482C89.862,74.393,74.395,89.861,55.381,89.861z"/>
	</g>
</g>
<g>
	<g>
		<path d="M511.646,498.866c-0.001-0.008-0.003-0.017-0.005-0.024c-0.076-0.283-0.166-0.562-0.265-0.838
			c-0.017-0.045-0.024-0.087-0.042-0.132L392.215,181.154c-1.301-3.459-4.332-5.973-7.97-6.612
			c-3.635-0.636-7.345,0.689-9.748,3.496l-33.482,39.112l-65.12-154.166c-1.634-3.867-5.423-6.382-9.622-6.382
			c-0.001,0-0.002,0-0.003,0c-4.197,0-7.988,2.512-9.623,6.377L127.747,367.632c-1.165-4.498-5.241-7.824-10.103-7.824
			c-20.742,0-37.616-16.874-37.616-37.616v-3.29c10.179,8.565,23.302,13.739,37.616,13.739c5.771,0,10.449-4.678,10.449-10.449
			c0-5.77-4.678-10.449-10.449-10.449c-20.742,0-37.616-16.874-37.616-37.616c0-5.77-4.678-10.449-10.449-10.449
			c-5.77,0-10.449,4.678-10.449,10.449c0,20.742-16.874,37.616-37.616,37.616c-5.77,0-10.449,4.679-10.449,10.449
			c0,5.771,4.679,10.449,10.449,10.449c14.314,0,27.437-5.174,37.616-13.739v3.29c0,20.742-16.874,37.616-37.616,37.616
			c-5.77,0-10.449,4.679-10.449,10.449c0,5.771,4.679,10.449,10.449,10.449c14.314,0,27.437-5.174,37.616-13.739v3.29
			c0,20.742-16.874,37.616-37.616,37.616c-5.77,0-10.449,4.679-10.449,10.449c0,5.771,4.679,10.449,10.449,10.449
			c14.314,0,27.437-5.174,37.616-13.739v38.764c-19.644,11.534-38.242,24.853-55.531,39.869c-3.291,2.859-4.463,7.462-2.936,11.546
			c1.526,4.085,5.427,6.792,9.788,6.792h491.102c4.36,0,8.262-2.707,9.788-6.792C512.117,503.13,512.191,500.917,511.646,498.866z
			 M276.718,118.641l132.253,313.096c-40.859-17.324-84.962-27.615-130.395-30.184l-13.002-68.553l44.402-88.795
			c1.388-2.776,1.47-6.027,0.224-8.869l-33.482-76.361V118.641z M255.82,118.561v42.602c0,1.444,0.299,2.873,0.88,4.196
			l32.394,73.881l-43.789,87.569c-1.023,2.047-1.347,4.373-0.921,6.62l12.798,67.477c-0.394-0.001-0.787-0.014-1.181-0.014
			c-44.452,0-87.947,7.397-128.742,21.524L255.82,118.561z M80.027,366.965c10.18,8.565,23.302,13.739,37.616,13.739
			c1.874,0,3.629-0.499,5.149-1.364l-11.817,27.927c-17.57-3.157-30.949-18.546-30.949-37.012V366.965z M80.027,415.03
			c6.508,5.475,14.217,9.563,22.673,11.799l-2.615,6.182c-6.779,2.942-13.471,6.07-20.058,9.397V415.03z M40.312,491.102
			c61.455-44.88,136.968-69.311,215.689-69.311s154.235,24.431,215.69,69.311H40.312z M437.326,445.16l-87.223-206.493
			l28.773-33.611l99.809,265.377C465.451,461.122,451.639,452.679,437.326,445.16z"/>
	</g>
</g>
<g>
	<g>
		<path d="M416.915,50.155h-3.135V47.02c0-5.77-4.679-10.449-10.449-10.449c-5.77,0-10.449,4.679-10.449,10.449v3.135h-3.135
			c-5.77,0-10.449,4.679-10.449,10.449c0,5.77,4.679,10.449,10.449,10.449h3.135v3.135c0,5.77,4.679,10.449,10.449,10.449
			c5.77,0,10.449-4.679,10.449-10.449v-3.135h3.135c5.77,0,10.449-4.678,10.449-10.449
			C427.364,54.833,422.685,50.155,416.915,50.155z"/>
	</g>
</g>
<g>
	<g>
		<path d="M501.552,130.612h-3.135v-3.135c0-5.77-4.679-10.449-10.449-10.449c-5.77,0-10.449,4.679-10.449,10.449v3.135h-3.135
			c-5.77,0-10.449,4.679-10.449,10.449c0,5.771,4.679,10.449,10.449,10.449h3.135v3.135c0,5.771,4.679,10.449,10.449,10.449
			c5.77,0,10.449-4.678,10.449-10.449v-3.135h3.135c5.77,0,10.449-4.678,10.449-10.449
			C512.001,135.291,507.322,130.612,501.552,130.612z"/>
	</g>
</g>
<g>
	<g>
		<path d="M64.785,174.384H61.65v-3.135c0-5.77-4.679-10.449-10.449-10.449s-10.449,4.679-10.449,10.449v3.135h-3.135
			c-5.771,0-10.449,4.679-10.449,10.449c0,5.771,4.679,10.449,10.449,10.449h3.135v3.135c0,5.77,4.679,10.449,10.449,10.449
			s10.449-4.678,10.449-10.449v-3.135h3.135c5.77,0,10.449-4.678,10.449-10.449C75.234,179.063,70.555,174.384,64.785,174.384z"/>
	</g>
</g>
<g>
	<g>
		<path d="M170.319,77.322h-3.135v-3.135c0-5.77-4.678-10.449-10.449-10.449c-5.77,0-10.449,4.679-10.449,10.449v3.135h-3.135
			c-5.77,0-10.449,4.679-10.449,10.449c0,5.77,4.679,10.449,10.449,10.449h3.135v3.135c0,5.77,4.679,10.449,10.449,10.449
			c5.771,0,10.449-4.679,10.449-10.449V98.22h3.135c5.771,0,10.449-4.679,10.449-10.449
			C180.768,82.002,176.09,77.322,170.319,77.322z"/>
	</g>
</g>
<g>
</g>
<g>
</g>
<g>
</g>
<g>
</g>
<g>
</g>
<g>
</g>
<g>
</g>
<g>
</g>
<g>
</g>
<g>
</g>
<g>
</g>
<g>
</g>
<g>
</g>
<g>
</g>
<g>
</g>
</svg>
