<svg height="512pt" viewBox="0 -25 512 511" width="512pt" xmlns="http://www.w3.org/2000/svg"><path d="m113 200.503906c5.519531 0 10-4.480468 10-10 0-5.582031-4.554688-10-10-10-5.519531 0-10 4.476563-10 10 0 5.441406 4.410156 10 10 10zm0 0"/><path d="m173 460.503906c29.417969 0 59.734375-7.464844 84.132812-20.59375 25.210938 13.488282 53.386719 20.59375 81.867188 20.59375 94.109375 0 173-76.132812 173-170 0-93.738281-78.761719-170-173-170-29.417969 0-59.734375 7.460938-84.136719 20.589844-17.75-9.492188-36.972656-15.800781-56.726562-18.71875 31.535156-26.613281 54.261719-45.964844 54.261719-74.292969 0-26.679687-19.597657-47.578125-44.617188-47.578125-16.824219 0-27.796875 9.015625-34.609375 18.191406-6.816406-9.175781-17.792969-18.191406-34.621094-18.191406-25.015625 0-44.609375 20.898438-44.609375 47.578125 0 28.296875 22.675782 47.636719 54.160156 74.203125-81.550781 11.75-148.101562 81.769532-148.101562 168.21875 0 93.734375 78.761719 170 173 170zm319-170c0 82.707032-68.636719 150-153 150-82.09375 0-153-66.449218-153-150 0-36.410156 13.003906-71.070312 36.761719-98.371094 6.132812 3 11.972656 6.523438 17.476562 10.554688-21.875 23.878906-34.238281 55.28125-34.238281 87.816406 0 71.207032 60.839844 130 133 130 71.054688 0 133-57.585937 133-130 0-72.472656-62.003906-130-133-130-15.839844 0-32.761719 2.785156-46.621094 7.566406-5.511718-5.1875-11.347656-10.019531-17.480468-14.453124 19.445312-8.417969 42.015624-13.113282 64.101562-13.113282 84.363281 0 153 67.289063 153 150zm-235.304688 74.660156c-19.605468-20.398437-30.695312-47.136718-30.695312-74.660156 0-27.683594 10.585938-54.40625 29.304688-74.664062 19.605468 20.398437 30.695312 47.136718 30.695312 74.664062 0 27.679688-10.585938 54.402344-29.304688 74.660156zm52.289063 31.242188c23.964844-30.027344 37.015625-67.09375 37.015625-105.902344 0-38.792968-13.515625-75.917968-38.34375-106.101562 9.898438-2.472656 21-3.898438 31.34375-3.898438 61.253906 0 113 50.371094 113 110 0 59.625-51.746094 110-113 110-10.1875 0-20.234375-1.375-30.015625-4.097656zm-195.042969-348.324219c0-15.722656 10.578125-27.578125 24.609375-27.578125 18.207031 0 24.691407 21.671875 24.992188 22.707032 1.210937 4.308593 5.144531 7.292968 9.625 7.292968 4.496093 0 8.4375-3 9.636719-7.332031.0625-.226563 6.496093-22.667969 24.976562-22.667969 14.035156 0 24.617188 11.855469 24.617188 27.578125 0 21.6875-23.011719 38.304688-59.226563 69.230469-36.027344-30.761719-59.230469-47.511719-59.230469-69.230469zm59.058594 92.421875h.160156c82.039063.082032 152.839844 66.515625 152.839844 150 0 36.394532-13.003906 71.054688-36.753906 98.367188-6.125-2.992188-11.972656-6.519532-17.484375-10.554688 21.878906-23.882812 34.238281-55.285156 34.238281-87.8125 0-71.25-60.871094-130-133-130-7.105469 0-13.699219.523438-20.753906 1.652344-5.449219.875-9.164063 6.003906-8.289063 11.457031.871094 5.453125 6.007813 9.167969 11.453125 8.292969 5.980469-.957031 11.570313-1.402344 17.589844-1.402344 10.191406 0 20.242188 1.375 30.019531 4.09375-23.964843 30.015625-37.019531 67.082032-37.019531 105.90625 0 38.789063 13.515625 75.914063 38.34375 106.097656-9.898438 2.472657-21 3.902344-31.34375 3.902344-63.222656 0-115.089844-53.394531-112.96875-112.121094.003906-.039062.003906-.082031.003906-.121093.652344-27.386719 14.828125-50.90625 26.601563-65.8125 3.425781-4.332031 2.6875-10.621094-1.648438-14.046875-4.332031-3.421875-10.625-2.683594-14.042969 1.648437-13.65625 17.289063-30.097656 44.792969-30.898437 77.671875-2.476563 69.472656 57.890625 132.78125 132.953125 132.78125 15.839844 0 32.761719-2.789062 46.621094-7.570312 5.511718 5.1875 11.347656 10.019531 17.480468 14.453125-19.445312 8.417969-42.015624 13.117187-64.101562 13.117187-84.363281 0-153-67.292968-153-150 0-82.710937 68.636719-150 153-150zm0 0"/><path d="m321.320312 4.957031c-3.0625-4.597656-9.269531-5.839843-13.867187-2.773437l-30 20c-4.597656 3.0625-5.835937 9.269531-2.773437 13.867187 3.074218 4.609375 9.285156 5.828125 13.867187 2.769531l30-20c4.597656-3.0625 5.835937-9.269531 2.773437-13.863281zm0 0"/><path d="m318.546875 82.179688-30-20c-4.597656-3.0625-10.804687-1.820313-13.867187 2.773437-3.0625 4.597656-1.820313 10.804687 2.773437 13.867187l30 20c4.574219 3.050782 10.789063 1.84375 13.867187-2.773437 3.0625-4.59375 1.824219-10.800781-2.773437-13.867187zm0 0"/><path d="m68.546875 22.179688-30-20c-4.59375-3.0625-10.804687-1.820313-13.867187 2.773437-3.0625 4.597656-1.820313 10.804687 2.773437 13.867187l30 20c4.574219 3.050782 10.789063 1.84375 13.867187-2.773437 3.0625-4.59375 1.824219-10.800781-2.773437-13.867187zm0 0"/><path d="m57.453125 62.179688-30 20c-4.597656 3.0625-5.835937 9.273437-2.773437 13.867187 3.074218 4.609375 9.285156 5.828125 13.867187 2.773437l30-20c4.597656-3.0625 5.835937-9.269531 2.773437-13.867187-3.0625-4.59375-9.273437-5.835937-13.867187-2.773437zm0 0"/></svg>